<svg width="21" height="20" viewBox="0 0 21 20" fill="none" xmlns="http://www.w3.org/2000/svg">
<path d="M15.7468 13.9536L16.0621 16.5082C16.1429 17.1792 15.4235 17.6481 14.8495 17.3005L11.4622 15.2875C11.0903 15.2875 10.7265 15.2632 10.3708 15.2147C10.9836 14.5044 11.3219 13.5982 11.3247 12.6601C11.3247 10.3642 9.33602 8.50482 6.87841 8.50482C5.94064 8.50482 5.07563 8.7716 4.35613 9.24048C4.33188 9.03838 4.32379 8.83627 4.32379 8.62608C4.32379 4.94775 7.51707 1.96467 11.4622 1.96467C15.4073 1.96467 18.6006 4.94775 18.6006 8.62608C18.6006 10.8088 17.4768 12.741 15.7468 13.9536Z" stroke="#BDBDBD" stroke-width="1.21264" stroke-linecap="round" stroke-linejoin="round"/>
<path d="M11.3247 12.6601C11.3247 13.6221 10.969 14.5114 10.3708 15.2147C9.57045 16.1848 8.30123 16.8073 6.8784 16.8073L4.76841 18.0604C4.41271 18.2787 3.95999 17.9795 4.00849 17.5672L4.2106 15.9746C3.12731 15.2228 2.43207 14.0183 2.43207 12.6601C2.43207 11.2373 3.19199 9.98422 4.35612 9.24047C5.07561 8.77159 5.94063 8.50481 6.8784 8.50481C9.33601 8.50481 11.3247 10.3642 11.3247 12.6601Z" stroke="#BDBDBD" stroke-width="1.21264" stroke-linecap="round" stroke-linejoin="round"/>
</svg>
