<svg width="26" height="25" viewBox="0 0 26 25" fill="none" xmlns="http://www.w3.org/2000/svg">
<path d="M23.9375 10.9375H14.5625V1.5625C14.5625 1.1481 14.3979 0.750672 14.1049 0.457646C13.8118 0.16462 13.4144 0 13 0C12.5856 0 12.1882 0.16462 11.8951 0.457646C11.6021 0.750672 11.4375 1.1481 11.4375 1.5625V10.9375H2.0625C1.6481 10.9375 1.25067 11.1021 0.957646 11.3951C0.66462 11.6882 0.5 12.0856 0.5 12.5C0.5 12.9144 0.66462 13.3118 0.957646 13.6049C1.25067 13.8979 1.6481 14.0625 2.0625 14.0625H11.4375V23.4375C11.4375 23.8519 11.6021 24.2493 11.8951 24.5424C12.1882 24.8354 12.5856 25 13 25C13.4144 25 13.8118 24.8354 14.1049 24.5424C14.3979 24.2493 14.5625 23.8519 14.5625 23.4375V14.0625H23.9375C24.3519 14.0625 24.7493 13.8979 25.0424 13.6049C25.3354 13.3118 25.5 12.9144 25.5 12.5C25.5 12.0856 25.3354 11.6882 25.0424 11.3951C24.7493 11.1021 24.3519 10.9375 23.9375 10.9375Z" fill="white"/>
</svg>
