<svg width="26" height="25" viewBox="0 0 26 25" fill="none" xmlns="http://www.w3.org/2000/svg">
<path d="M16.2634 12.4964L25.2131 3.56758C25.605 3.17566 25.8252 2.6441 25.8252 2.08984C25.8252 1.53558 25.605 1.00402 25.2131 0.6121C24.8212 0.220179 24.2896 0 23.7353 0C23.1811 0 22.6495 0.220179 22.2576 0.6121L13.3287 9.56178L4.39986 0.6121C4.00794 0.220179 3.47639 -4.12955e-09 2.92213 0C2.36787 4.12956e-09 1.83631 0.220179 1.44439 0.6121C1.05247 1.00402 0.832287 1.53558 0.832287 2.08984C0.832287 2.6441 1.05247 3.17566 1.44439 3.56758L10.3941 12.4964L1.44439 21.4253C1.24931 21.6188 1.09447 21.849 0.988804 22.1026C0.883138 22.3563 0.828735 22.6283 0.828735 22.9031C0.828735 23.1778 0.883138 23.4499 0.988804 23.7035C1.09447 23.9571 1.24931 24.1873 1.44439 24.3808C1.63787 24.5759 1.86807 24.7307 2.1217 24.8364C2.37533 24.942 2.64737 24.9964 2.92213 24.9964C3.19688 24.9964 3.46893 24.942 3.72255 24.8364C3.97618 24.7307 4.20638 24.5759 4.39986 24.3808L13.3287 15.4311L22.2576 24.3808C22.4511 24.5759 22.6813 24.7307 22.9349 24.8364C23.1885 24.942 23.4606 24.9964 23.7353 24.9964C24.0101 24.9964 24.2821 24.942 24.5358 24.8364C24.7894 24.7307 25.0196 24.5759 25.2131 24.3808C25.4082 24.1873 25.563 23.9571 25.6687 23.7035C25.7743 23.4499 25.8287 23.1778 25.8287 22.9031C25.8287 22.6283 25.7743 22.3563 25.6687 22.1026C25.563 21.849 25.4082 21.6188 25.2131 21.4253L16.2634 12.4964Z" fill="white"/>
</svg>
