<svg width="53" height="25" viewBox="0 0 53 25" fill="none" xmlns="http://www.w3.org/2000/svg">
<path d="M20 18.5C21.26 16.83 22 14.75 22 12.5C22 10.25 21.26 8.17 20 6.5M4 6.5C2.74 8.17 2 10.25 2 12.5C2 14.75 2.74 16.83 4 18.5M16.8 16.1C17.55 15.1 18 13.85 18 12.5C18 11.15 17.55 9.9 16.8 8.9M7.2 8.9C6.45 9.9 6 11.15 6 12.5C6 13.85 6.45 15.1 7.2 16.1M12 14.5C12.5304 14.5 13.0391 14.2893 13.4142 13.9142C13.7893 13.5391 14 13.0304 14 12.5C14 11.9696 13.7893 11.4609 13.4142 11.0858C13.0391 10.7107 12.5304 10.5 12 10.5C11.4696 10.5 10.9609 10.7107 10.5858 11.0858C10.2107 11.4609 10 11.9696 10 12.5C10 13.0304 10.2107 13.5391 10.5858 13.9142C10.9609 14.2893 11.4696 14.5 12 14.5Z" stroke="#10FAA5" stroke-width="1.5" stroke-linecap="round" stroke-linejoin="round"/>
<path d="M26.8608 17V8.27273H28.4418V15.6747H32.2855V17H26.8608ZM35.2386 8.27273V17H33.6577V8.27273H35.2386ZM38.1183 8.27273L40.3896 15.142H40.479L42.7461 8.27273H44.4847L41.408 17H39.4563L36.3839 8.27273H38.1183ZM45.6342 17V8.27273H51.3104V9.59801H47.2152V11.9673H51.0163V13.2926H47.2152V15.6747H51.3445V17H45.6342Z" fill="#10FAA5"/>
</svg>
