<svg width="26" height="25" viewBox="0 0 26 25" fill="none" xmlns="http://www.w3.org/2000/svg">
<path d="M24.6373 14.4917C24.2882 14.3829 23.9102 14.4165 23.5857 14.5852C23.2612 14.7539 23.0166 15.0441 22.9052 15.3924C22.2505 17.394 20.9743 19.1346 19.2621 20.3608C17.5499 21.5869 15.4911 22.2348 13.3853 22.2101C10.7807 22.2397 8.27054 21.2352 6.40542 19.4168C4.54029 17.5985 3.47238 15.1147 3.43586 12.5101C3.47238 9.90553 4.54029 7.42173 6.40542 5.60336C8.27054 3.78499 10.7807 2.78048 13.3853 2.81008C15.7377 2.8044 18.0176 3.62323 19.8289 5.12423L16.8219 4.62537C16.6417 4.59572 16.4574 4.60198 16.2796 4.64381C16.1018 4.68563 15.934 4.76219 15.7859 4.86907C15.6378 4.97596 15.5123 5.11107 15.4166 5.26663C15.3209 5.42219 15.2569 5.59513 15.2283 5.77552C15.1987 5.95573 15.2049 6.14003 15.2468 6.31782C15.2886 6.49561 15.3651 6.66337 15.472 6.81147C15.5789 6.95956 15.714 7.08507 15.8696 7.18077C16.0251 7.27646 16.1981 7.34047 16.3785 7.36909L22.2539 8.33909H22.4895C22.6502 8.33891 22.8096 8.31077 22.9606 8.25595C23.0114 8.23668 23.0583 8.20853 23.0992 8.17281C23.1985 8.13586 23.2919 8.0845 23.3763 8.02038L23.5011 7.86795C23.5011 7.79866 23.6258 7.74324 23.6812 7.66009C23.7366 7.57695 23.6812 7.52152 23.7505 7.46609C23.7888 7.38539 23.8212 7.30203 23.8475 7.21666L24.8868 1.67379C24.9213 1.49182 24.9197 1.30482 24.882 1.12346C24.8443 0.942107 24.7713 0.769953 24.6671 0.616829C24.5628 0.463705 24.4295 0.33261 24.2746 0.231027C24.1197 0.129445 23.9463 0.0593657 23.7643 0.0247905C23.5824 -0.00978478 23.3954 -0.00817888 23.214 0.0295166C23.0327 0.067212 22.8605 0.140259 22.7074 0.244486C22.3981 0.454983 22.1852 0.779706 22.1153 1.14722L21.7412 3.15651C19.4215 1.14617 16.4549 0.0392446 13.3853 0.0386476C10.0456 0.00908651 6.83064 1.3056 4.44578 3.6437C2.06092 5.9818 0.700999 9.1705 0.664429 12.5101C0.700999 15.8497 2.06092 19.0384 4.44578 21.3765C6.83064 23.7146 10.0456 25.0111 13.3853 24.9816C16.0918 25.0231 18.7402 24.1946 20.9404 22.618C23.1407 21.0414 24.7766 18.8 25.6073 16.2238C25.6599 16.0464 25.6764 15.8603 25.6559 15.6764C25.6353 15.4925 25.5782 15.3146 25.4878 15.1531C25.3973 14.9917 25.2755 14.85 25.1295 14.7364C24.9834 14.6228 24.8161 14.5396 24.6373 14.4917Z" fill="white"/>
</svg>
