<svg width="22" height="22" viewBox="0 0 22 22" fill="none" xmlns="http://www.w3.org/2000/svg">
<path d="M18.4352 19.9688C18.4352 16.4918 14.9762 13.6797 10.7176 13.6797C6.45898 13.6797 3 16.4918 3 19.9688M10.7176 10.9844C11.909 10.9844 13.0516 10.5111 13.894 9.66864C14.7365 8.8262 15.2098 7.68359 15.2098 6.49219C15.2098 5.30079 14.7365 4.15818 13.894 3.31573C13.0516 2.47328 11.909 2 10.7176 2C9.52618 2 8.38357 2.47328 7.54112 3.31573C6.69867 4.15818 6.22539 5.30079 6.22539 6.49219C6.22539 7.68359 6.69867 8.8262 7.54112 9.66864C8.38357 10.5111 9.52618 10.9844 10.7176 10.9844Z" stroke="white" stroke-width="1.5" stroke-linecap="round" stroke-linejoin="round"/>
</svg>
